<?xml version="1.0" encoding="UTF-8" standalone="no"?>
<!-- Created with Inkscape (http://www.inkscape.org/) -->

<svg
   width="100"
   height="100"
   viewBox="0 0 100 100"
   version="1.1"
   id="svg2072"
   inkscape:version="1.2.1 (9c6d41e410, 2022-07-14)"
   sodipodi:docname="cart_remove.svg"
   xmlns:inkscape="http://www.inkscape.org/namespaces/inkscape"
   xmlns:sodipodi="http://sodipodi.sourceforge.net/DTD/sodipodi-0.dtd"
   xmlns="http://www.w3.org/2000/svg"
   xmlns:svg="http://www.w3.org/2000/svg">
  <sodipodi:namedview
     id="namedview2074"
     pagecolor="#ffffff"
     bordercolor="#000000"
     borderopacity="0.25"
     inkscape:showpageshadow="2"
     inkscape:pageopacity="0"
     inkscape:pagecheckerboard="true"
     inkscape:deskcolor="#d1d1d1"
     inkscape:document-units="mm"
     showgrid="true"
     inkscape:zoom="2.973261"
     inkscape:cx="0.33633105"
     inkscape:cy="30.269795"
     inkscape:window-width="1366"
     inkscape:window-height="705"
     inkscape:window-x="-8"
     inkscape:window-y="1112"
     inkscape:window-maximized="1"
     inkscape:current-layer="layer1">
    <inkscape:grid
       type="xygrid"
       id="grid4046"
       originx="0"
       originy="0" />
  </sodipodi:namedview>
  <defs
     id="defs2069" />
  <g
     inkscape:label="Слой 1"
     inkscape:groupmode="layer"
     id="layer1">
    <path
       d="M 79.165635,66.724275 H 36.336858 c -0.984837,0 -1.837382,-0.682457 -2.051566,-1.644192 L 25.885847,27.28257 c -0.136488,-0.621558 0.01488,-1.272514 0.413689,-1.768084 0.398987,-0.497677 0.999533,-0.787443 1.637894,-0.787443 h 14.699028 c 1.161228,0 2.099863,0.940734 2.099863,2.099862 0,1.159121 -0.938635,2.099857 -2.099863,2.099857 H 30.555959 l 7.465007,33.597787 h 41.144688 c 0.991133,0 1.83528,-0.676153 2.047363,-1.644191 l 6.53267,-29.398062 c 0.140715,-0.625761 -0.0084,-1.270419 -0.411546,-1.770185 -0.398987,-0.49976 -0.995336,-0.785349 -1.635792,-0.785349 h -9.46408 c -1.161223,0 -2.099862,-0.940736 -2.099862,-2.099857 0,-1.159128 0.938639,-2.099862 2.099862,-2.099862 h 9.46408 c 1.919274,0 3.710453,0.858842 4.913676,2.358141 1.201121,1.497204 1.65259,3.433276 1.236817,5.308455 L 85.31407,61.7896 c -0.644653,2.906205 -3.17289,4.934675 -6.148393,4.934675"
       style="fill:#5e6061;fill-opacity:1;fill-rule:nonzero;stroke:none;stroke-width:0.209986"
       id="path84" />
    <path
       d="M 80.433953,77.223583 H 41.762901 c -2.935611,0 -5.459639,-1.99697 -6.133697,-4.854878 L 20.356911,7.4472749 C 20.132209,6.4939388 19.292282,5.8282869 18.311643,5.8282869 H 6.9387975 c -1.1612232,0 -2.0998633,-0.9407424 -2.0998633,-2.0998634 0,-1.1591276 0.9386401,-2.0998629 2.0998633,-2.0998629 H 18.311643 c 2.935611,0 5.459645,1.9969702 6.133696,4.8569792 L 39.717634,71.404868 c 0.224701,0.953337 1.064634,1.618989 2.045267,1.618989 h 38.671052 c 1.161223,0 2.099864,0.938641 2.099864,2.099864 0,1.161222 -0.938641,2.099862 -2.099864,2.099862"
       style="fill:#5e6061;fill-opacity:1;fill-rule:nonzero;stroke:none;stroke-width:0.209986"
       id="path86" />
    <path
       d="m 46.836166,81.423303 c -3.473169,0 -6.299583,2.826414 -6.299583,6.299588 0,3.473169 2.826414,6.299583 6.299583,6.299583 3.473169,0 6.299583,-2.826414 6.299583,-6.299583 0,-3.473174 -2.826414,-6.299588 -6.299583,-6.299588 z m 0,16.798897 c -5.789317,0 -10.499308,-4.709992 -10.499308,-10.499309 0,-5.789322 4.709991,-10.499308 10.499308,-10.499308 5.789315,0 10.499308,4.709986 10.499308,10.499308 0,5.789317 -4.709993,10.499309 -10.499308,10.499309"
       style="fill:#5e6061;fill-opacity:1;fill-rule:nonzero;stroke:none;stroke-width:0.209986"
       id="path88" />
    <path
       d="m 74.134365,81.423303 c -3.473168,0 -6.299582,2.826414 -6.299582,6.299588 0,3.473169 2.826414,6.299583 6.299582,6.299583 3.473174,0 6.299588,-2.826414 6.299588,-6.299583 0,-3.473174 -2.826414,-6.299588 -6.299588,-6.299588 z m 0,16.798897 c -5.789317,0 -10.499308,-4.709992 -10.499308,-10.499309 0,-5.789322 4.709991,-10.499308 10.499308,-10.499308 5.789322,0 10.499309,4.709986 10.499309,10.499308 0,5.789317 -4.709987,10.499309 -10.499309,10.499309"
       style="fill:#5e6061;fill-opacity:1;fill-rule:nonzero;stroke:none;stroke-width:0.209986"
       id="path90" />
    <path
       d="M 47.705509,16.826902 59.435336,5.097073 71.165166,16.826902 h -3.330383 c -1.161224,0 -2.099864,0.940736 -2.099864,2.099857 V 42.025238 H 53.135749 V 18.926759 c 0,-1.159121 -0.938634,-2.099857 -2.099857,-2.099857 z M 59.435336,0.028006 c -0.537557,0 -1.075127,0.205772 -1.484602,0.615259 L 41.151838,17.442156 c -0.600559,0.600564 -0.781147,1.503501 -0.455654,2.288851 0.323392,0.783247 1.091925,1.295614 1.940268,1.295614 h 6.299588 v 23.09848 c 0,1.159124 0.938635,2.099865 2.099864,2.099865 h 16.798891 c 1.161222,0 2.099862,-0.940741 2.099862,-2.099865 v -23.09848 h 6.299583 c 0.848342,0 1.616894,-0.512379 1.940274,-1.295614 0.325475,-0.78535 0.14488,-1.688287 -0.455654,-2.288851 L 60.91997,0.643265 C 60.510506,0.233803 59.972931,0.028006 59.435366,0.028006"
       style="fill:#5e6061;fill-opacity:1;fill-rule:nonzero;stroke:none;stroke-width:0.209986"
       id="path92" />
  </g>
</svg>
