<?xml version="1.0" encoding="UTF-8" standalone="no"?>
<!-- Created with Inkscape (http://www.inkscape.org/) -->

<svg
   width="100"
   height="100"
   viewBox="0 0 100 100"
   version="1.1"
   id="svg2072"
   inkscape:version="1.2.1 (9c6d41e410, 2022-07-14)"
   sodipodi:docname="cart.svg"
   xmlns:inkscape="http://www.inkscape.org/namespaces/inkscape"
   xmlns:sodipodi="http://sodipodi.sourceforge.net/DTD/sodipodi-0.dtd"
   xmlns="http://www.w3.org/2000/svg"
   xmlns:svg="http://www.w3.org/2000/svg">
  <sodipodi:namedview
     id="namedview2074"
     pagecolor="#ffffff"
     bordercolor="#000000"
     borderopacity="0.25"
     inkscape:showpageshadow="2"
     inkscape:pageopacity="0"
     inkscape:pagecheckerboard="true"
     inkscape:deskcolor="#d1d1d1"
     inkscape:document-units="mm"
     showgrid="true"
     inkscape:zoom="2.973261"
     inkscape:cx="0.33633105"
     inkscape:cy="30.269795"
     inkscape:window-width="1366"
     inkscape:window-height="705"
     inkscape:window-x="-8"
     inkscape:window-y="1112"
     inkscape:window-maximized="1"
     inkscape:current-layer="layer1">
    <inkscape:grid
       type="xygrid"
       id="grid4046"
       originx="0"
       originy="0" />
  </sodipodi:namedview>
  <defs
     id="defs2069" />
  <g
     inkscape:label="Слой 1"
     inkscape:groupmode="layer"
     id="layer1">
    <path
       d="M 79.582989,67.98627 H 38.143581 c -0.95231,0 -1.777022,-0.66034 -1.983455,-1.590909 L 28.03288,29.822752 c -0.1341,-0.601417 0.01356,-1.231278 0.397627,-1.710786 0.386653,-0.481539 0.969986,-0.761929 1.585828,-0.761929 h 59.951854 c 1.122372,0 2.031811,0.910251 2.031811,2.031811 0,1.12156 -0.909439,2.031813 -2.031811,2.031813 H 32.548988 l 7.224716,32.508985 h 39.809285 c 0.959624,0 1.77621,-0.654243 1.985081,-1.590909 l 5.613691,-25.263545 c 0.241989,-1.095146 1.330024,-1.78393 2.423749,-1.542145 1.09535,0.243817 1.786572,1.328804 1.542958,2.423951 l -5.614506,25.261515 c -0.624579,2.812027 -3.072301,4.774757 -5.950973,4.774757"
       style="fill:#5e6061;fill-opacity:1;fill-rule:nonzero;stroke:none;stroke-width:0.203181"
       id="path42" />
    <path
       d="M 80.811626,78.145327 H 43.393782 c -2.842097,0 -5.28271,-1.932253 -5.933499,-4.69958 L 22.679666,10.630259 C 22.463685,9.707817 21.650188,9.0637322 20.702551,9.0637322 H 9.698218 c -1.1222504,0 -2.0318112,-0.9102511 -2.0318112,-2.0318112 0,-1.12156 0.9095608,-2.0318127 2.0318112,-2.0318127 h 11.004333 c 2.842058,0 5.28267,1.9322529 5.93346,4.6995804 L 41.416627,72.515178 c 0.215981,0.922442 1.029519,1.566527 1.977155,1.566527 h 37.417844 c 1.12217,0 2.031811,0.908219 2.031811,2.031811 0,1.123591 -0.909641,2.031811 -2.031811,2.031811"
       style="fill:#5e6061;fill-opacity:1;fill-rule:nonzero;stroke:none;stroke-width:0.203181"
       id="path44" />
    <path
       d="m 48.30264,82.208951 c -3.361227,0 -6.095435,2.734819 -6.095435,6.095435 0,3.360616 2.734208,6.095435 6.095435,6.095435 3.361225,0 6.095435,-2.734819 6.095435,-6.095435 0,-3.360616 -2.73421,-6.095435 -6.095435,-6.095435 z m 0,16.254492 c -5.600893,0 -10.159059,-4.557352 -10.159059,-10.159057 0,-5.601705 4.558166,-10.159059 10.159059,-10.159059 5.600891,0 10.159057,4.557354 10.159057,10.159059 0,5.601705 -4.558166,10.159057 -10.159057,10.159057"
       style="fill:#5e6061;fill-opacity:1;fill-rule:nonzero;stroke:none;stroke-width:0.203181"
       id="path46" />
    <path
       d="m 74.716191,82.208951 c -3.361225,0 -6.095435,2.734819 -6.095435,6.095435 0,3.360616 2.73421,6.095435 6.095435,6.095435 3.361226,0 6.095435,-2.734819 6.095435,-6.095435 0,-3.360616 -2.734209,-6.095435 -6.095435,-6.095435 z m 0,16.254492 c -5.600892,0 -10.159059,-4.557352 -10.159059,-10.159057 0,-5.601705 4.558167,-10.159059 10.159059,-10.159059 5.600891,0 10.159058,4.557354 10.159058,10.159059 0,5.601705 -4.558167,10.159057 -10.159058,10.159057"
       style="fill:#5e6061;fill-opacity:1;fill-rule:nonzero;stroke:none;stroke-width:0.203181"
       id="path48" />
    <path
       d="m 60.49351,61.890835 c -1.12217,0 -2.031813,-0.90822 -2.031813,-2.031812 V 37.509096 c 0,-1.12156 0.909643,-2.031813 2.031813,-2.031813 1.12217,0 2.031811,0.910253 2.031811,2.031813 v 22.349927 c 0,1.123592 -0.909641,2.031812 -2.031811,2.031812"
       style="fill:#5e6061;fill-opacity:1;fill-rule:nonzero;stroke:none;stroke-width:0.203181"
       id="path50" />
    <path
       d="m 70.655006,61.890835 c -0.12069,0 -0.243004,-0.01021 -0.365117,-0.03455 -1.104898,-0.199117 -1.836555,-1.257691 -1.636624,-2.360965 l 4.063624,-22.349928 c 0.200742,-1.103273 1.257284,-1.832694 2.361981,-1.635607 1.104898,0.201149 1.836554,1.259722 1.636624,2.362996 L 72.65187,60.222712 c -0.178596,0.981365 -1.034191,1.668118 -1.996864,1.668118"
       style="fill:#5e6061;fill-opacity:1;fill-rule:nonzero;stroke:none;stroke-width:0.203181"
       id="path52" />
    <path
       d="m 50.332013,61.890835 c -0.962672,0 -1.818268,-0.686753 -1.996865,-1.668118 L 44.271524,37.872789 c -0.19993,-1.103274 0.531727,-2.161847 1.636625,-2.362996 1.105509,-0.199118 2.161238,0.532334 2.361981,1.635608 l 4.063624,22.349928 c 0.19993,1.103273 -0.531725,2.161848 -1.636625,2.360964 -0.121299,0.02438 -0.244427,0.03455 -0.365116,0.03455"
       style="fill:#5e6061;fill-opacity:1;fill-rule:nonzero;stroke:none;stroke-width:0.203181"
       id="path54" />
  </g>
</svg>
